<svg id="Layer_1" data-name="Layer 1" xmlns="http://www.w3.org/2000/svg" viewBox="0 0 88 88"><defs><style>.cls-1{fill:none;}.cls-2{fill:#ffd744;}</style></defs><title>88x88</title><g id="Sunny"><rect class="cls-1" width="88" height="88"/><path class="cls-2" d="M44,72.38A28.39,28.39,0,1,0,15.6,44,28.39,28.39,0,0,0,44,72.38Z"/><path class="cls-2" d="M43,3h2v9.59H43Z"/><path class="cls-2" d="M43,75.41h2V85H43Z"/><path class="cls-2" d="M75.41,43H85v2H75.41Z"/><path class="cls-2" d="M3,43h9.59v2H3Z"/><path class="cls-2" d="M65.48,21.06l6.78-6.78,1.42,1.42L66.9,22.48Z"/><path class="cls-2" d="M14.28,72.3l6.78-6.78,1.42,1.42L15.7,73.72Z"/><path class="cls-2" d="M65.47,66.92l1.41-1.42,6.78,6.79L72.25,73.7Z"/><path class="cls-2" d="M14.28,15.73l1.42-1.42,6.78,6.79-1.42,1.41Z"/><path class="cls-2" d="M27.4,6.47l1.85-.76,3.67,8.86-1.85.77Z"/><path class="cls-2" d="M55.12,73.41,57,72.64l3.67,8.86-1.85.77Z"/><path class="cls-2" d="M72.66,31l8.86-3.68.77,1.85-8.86,3.68Z"/><path class="cls-2" d="M5.78,58.73l8.86-3.67.77,1.85L6.54,60.58Z"/><path class="cls-2" d="M55.13,14.59,58.8,5.72l1.85.77L57,15.35Z"/><path class="cls-2" d="M27.4,81.48l3.68-8.86,1.85.77-3.68,8.86Z"/><path class="cls-2" d="M72.69,57l.77-1.85,8.86,3.67-.77,1.85Z"/><path class="cls-2" d="M5.76,29.25l.77-1.85,8.86,3.67-.77,1.85Z"/></g></svg>